<?xml version="1.0" encoding="iso-8859-1"?>
<!-- Uploaded to: SVG Repo, www.svgrepo.com, Generator: SVG Repo Mixer Tools -->
<svg height="800px" width="800px" version="1.1" id="Layer_1"
    xmlns="http://www.w3.org/2000/svg"
    xmlns:xlink="http://www.w3.org/1999/xlink" viewBox="0 0 392.622 392.622" xml:space="preserve">
    <polygon style="fill:#56ACE0;" points="315.709,117.139 221.132,117.139 272.008,172.606 "/>
    <polygon style="fill:#FFFFFF;" points="145.301,177.972 247.313,177.972 196.307,122.311 "/>
    <g>
        <polygon style="fill:#FFC10D;" points="295.604,177.972 363.612,177.972 336.267,126.19 	"/>
        <polygon style="fill:#FFC10D;" points="257.334,199.758 135.863,199.758 196.631,352.194 	"/>
    </g>
    <g>
        <polygon style="fill:#56ACE0;" points="227.596,333.317 356.113,199.758 280.865,199.758 	"/>
        <polygon style="fill:#56ACE0;" points="171.483,117.139 76.905,117.139 120.606,172.606 	"/>
        <polygon style="fill:#56ACE0;" points="36.501,199.758 166.117,334.545 112.396,199.758 	"/>
    </g>
    <polygon style="fill:#FFC10D;" points="97.01,177.972 56.348,126.19 29.002,177.972 "/>
    <g>
        <path style="fill:#194F82;" d="M391.346,183.725l-43.572-82.618c-1.875-3.556-5.56-5.818-9.632-5.818H54.602
		c-4.008,0-7.758,2.263-9.632,5.818L1.269,183.725c-2.133,4.202-1.487,9.309,1.81,12.671l185.406,192.905
		c4.719,4.461,11.313,4.396,15.774,0l185.406-192.905C392.833,193.034,393.479,187.927,391.346,183.725z M227.596,333.317
		l53.269-133.689h75.184L227.596,333.317z M36.501,199.758h75.895l53.721,134.853L36.501,199.758z M171.483,117.139l-50.941,55.467
		l-43.636-55.467H171.483z M315.709,117.139l-43.636,55.467l-50.941-55.467H315.709z M145.301,177.972l51.006-55.661l51.006,55.661
		H145.301z M97.01,177.972H29.002l27.281-51.717L97.01,177.972z M257.334,199.758l-60.768,152.566l-60.768-152.566H257.334z
		 M295.604,177.972l40.663-51.717l27.281,51.717H295.604L295.604,177.972z"/>
        <path style="fill:#194F82;" d="M343.572,69.43l41.18-48.226c3.943-4.59,3.426-11.442-1.228-15.386
		c-4.59-3.943-11.442-3.426-15.386,1.228l-41.18,48.226c-3.943,4.59-3.426,11.442,1.228,15.386
		C333.616,75.184,340.081,73.244,343.572,69.43z"/>
        <path style="fill:#194F82;" d="M49.043,69.43c3.491,3.814,9.956,5.689,15.386,1.228c4.59-3.943,5.107-10.796,1.228-15.386
		L24.477,7.046c-3.943-4.59-10.796-5.107-15.386-1.228c-4.59,3.943-5.107,10.796-1.228,15.386L49.043,69.43z"/>
        <path style="fill:#194F82;" d="M196.307,66.198c6.012,0,10.925-4.848,10.925-10.925V10.925C207.233,4.913,202.384,0,196.307,0
		c-6.012,0-10.925,4.848-10.925,10.925v44.347C185.382,61.349,190.295,66.198,196.307,66.198z"/>
    </g>
</svg>